<svg height="512" viewBox="0 0 512 512" width="512" xmlns="http://www.w3.org/2000/svg"><g id="Filled-Outline"><path d="m168 120v-32l16-32-16-8v-24h128l16 16h24v80l-32 32v56l144.67 43.4a24 24 0 0 1 17 20.52l22.33 216.08h-48l-16-152-8 152h-312l-16-152-16 152h-48l22.32-223.2a24 24 0 0 1 18.06-20.9l143.62-35.9v-40h-24v-48z" fill="#5ec09b"/><path d="m256 280-40 40v-40l24-24v-120h-56v-16h-16v-32h104v168l32 32v40z" fill="#e22526"/><path d="m100 96h16.69l-2.35 2.34a8 8 0 0 0 11.32 11.32l16-16a7.55 7.55 0 0 0 .54-.59l.2-.27.26-.36a3.87 3.87 0 0 0 .21-.34l.2-.33.17-.36c.05-.12.11-.23.16-.35s.09-.24.13-.36a2.43 2.43 0 0 0 .13-.38c0-.12.07-.24.1-.37s.07-.25.09-.39 0-.29.07-.43 0-.23.05-.34a8.34 8.34 0 0 0 0-1.58c0-.11 0-.23-.05-.34s0-.29-.07-.43-.06-.26-.09-.39-.06-.25-.1-.37a2.43 2.43 0 0 0 -.13-.38c0-.12-.08-.24-.13-.36s-.11-.23-.16-.35l-.17-.36-.2-.33a3.87 3.87 0 0 0 -.21-.34l-.26-.36-.2-.27a7.55 7.55 0 0 0 -.54-.59l-16-16a8 8 0 0 0 -11.32 11.32l2.35 2.34h-16.69a52.06 52.06 0 0 1 -52-52v-4a8 8 0 0 0 -16 0v4a68.07 68.07 0 0 0 68 68z" fill="#40c6f3"/><path d="m136 120h-36a68.07 68.07 0 0 0 -68 68v.69l-2.34-2.35a8 8 0 0 0 -11.32 11.32l16 16c.19.19.39.37.59.54l.26.19c.12.09.24.19.37.27a2.9 2.9 0 0 0 .33.2l.34.21.35.17.36.16.35.13.39.14.35.09.41.1.42.06.35.05a7.82 7.82 0 0 0 1.58 0l.35-.05.42-.06.41-.1.35-.09.39-.14.35-.13.36-.16.35-.17.34-.21a2.9 2.9 0 0 0 .33-.2c.13-.08.25-.18.37-.27l.26-.19c.2-.17.4-.35.59-.54l16-16a8 8 0 0 0 -11.32-11.32l-2.34 2.35v-.69a52.06 52.06 0 0 1 52-52h36a8 8 0 0 0 0-16z" fill="#40c6f3"/><path d="m336.28 264.28 39.44 39.44a28.28 28.28 0 0 1 8.28 20v104a28.28 28.28 0 0 1 -28.28 28.28h-39.44a28.28 28.28 0 0 1 -28.28-28.28v-143.44a28.28 28.28 0 0 1 28.28-28.28 28.28 28.28 0 0 1 20 8.28z" fill="#fd918c"/><path d="m175.72 264.28-39.44 39.44a28.28 28.28 0 0 0 -8.28 20v104a28.28 28.28 0 0 0 28.28 28.28h39.44a28.28 28.28 0 0 0 28.28-28.28v-143.44a28.28 28.28 0 0 0 -28.28-28.28 28.28 28.28 0 0 0 -20 8.28z" fill="#fd918c"/><path d="m229.66 293.66a8 8 0 0 0 -11.32-11.32l-48 48-24 24a8 8 0 0 0 11.32 11.32l10.22-10.22-.12 17.48-21.42 21.42a8 8 0 0 0 11.32 11.32l10-10v4.26s0 .06 0 .09 0 .06 0 .1l.41 24a8 8 0 0 0 8 7.86h.14a8 8 0 0 0 7.86-8.14l-.08-4.56 2.49 2.43a8 8 0 1 0 11.18-11.46l-14-13.62.12-18.63a8 8 0 0 0 0-3.94v-3l2.56 2.57a8 8 0 1 0 11.32-11.32l-13.74-13.73.06-9.28z" fill="#e22526"/><path d="m282.34 293.66a8 8 0 0 1 11.32-11.32l48 48 24 24a8 8 0 0 1 -11.32 11.32l-10.22-10.22.12 17.48 21.42 21.42a8 8 0 0 1 -11.32 11.32l-10-10v4.26s0 .06 0 .09 0 .06 0 .1l-.41 24a8 8 0 0 1 -8 7.86h-.14a8 8 0 0 1 -7.86-8.14l.08-4.56-2.49 2.43a8 8 0 0 1 -11.18-11.46l14-13.62-.07-18.62a8 8 0 0 1 0-3.94v-3l-2.56 2.57a8 8 0 0 1 -11.32-11.32l13.74-13.73-.06-9.28z" fill="#e22526"/><path d="m496 487.18-22.4-216.08a31.89 31.89 0 0 0 -22.6-27.36l-139-41.69v-46.74l29.66-29.65a8 8 0 0 0 2.34-5.66v-80a8 8 0 0 0 -8-8h-20.69l-13.65-13.66a8 8 0 0 0 -5.66-2.34h-128a8 8 0 0 0 -8 8v24a8 8 0 0 0 4.42 7.16l8.85 4.42-12.43 24.84a8.4 8.4 0 0 0 -.84 3.58v32a8 8 0 0 0 8 8h8v40a8 8 0 0 0 8 8h16v25.75l-137.56 34.39a32.09 32.09 0 0 0 -24.08 27.86l-22.36 223.2a8 8 0 0 0 8 8.8h48a8 8 0 0 0 8-7.16l8-76.42 8 76.42a8 8 0 0 0 8 7.16h312a8 8 0 0 0 8-7.58l2.67-50.74 5.33 51.16a8 8 0 0 0 8 7.16h48a8.06 8.06 0 0 0 8-8.82zm-229.66-225.52 14.57 14.57c-1.28 5.11-.84 11.17-.91 16.46l-18.34-18.35a8 8 0 0 0 -11.32 0l-18.34 18.35c-.07-5.29.37-11.35-.91-16.46l14.57-14.57a8 8 0 0 0 2.34-5.66v-120a8 8 0 0 0 -8-8h-48v-8a8 8 0 0 0 -8-8h-8v-16h88v160a8 8 0 0 0 2.34 5.66zm29.66 50.34v-4.69l32 32 .06 9.28-13.74 13.73c-7.23 7.75 3.57 18.55 11.32 11.32l2.56-2.57v3a8 8 0 0 0 0 3.94l.12 18.63-14 13.62c-7.32 7.66 3.34 18.59 11.18 11.46l2.49-2.43-.08 4.56a8 8 0 0 0 16 .28c0-3.14.5-25.94.38-28.45l10 10a8 8 0 0 0 5.71 2.32c7 .12 10.72-8.74 5.66-13.66l-21.42-21.42-.12-17.48 10.22 10.22a8 8 0 0 0 5.66 2.34c7 .12 10.72-8.74 5.66-13.66l-69.66-69.65c-.38-18.11 21.84-27.62 34.63-14.75l39.43 39.43a20.17 20.17 0 0 1 5.94 14.35v104a20.31 20.31 0 0 1 -20.28 20.28h-39.44a20.31 20.31 0 0 1 -20.28-20.28zm-80-27.72v.41l-69.66 69.65c-7.22 7.74 3.57 18.55 11.32 11.32l10.22-10.22-.12 17.48-21.42 21.42c-5.06 4.92-1.3 13.78 5.66 13.66a8 8 0 0 0 5.66-2.34l10-10c-.11 2.39.34 25.42.38 28.45a8 8 0 0 0 16-.28l-.08-4.56 2.49 2.43c7.84 7.13 18.5-3.8 11.18-11.46l-14-13.62.12-18.63a8 8 0 0 0 0-3.94v-3l2.56 2.57c7.75 7.23 18.55-3.57 11.32-11.32l-13.74-13.73.06-9.28 32-32v120.43a20.31 20.31 0 0 1 -20.23 20.28h-39.44a20.31 20.31 0 0 1 -20.28-20.28v-104a20.17 20.17 0 0 1 5.94-14.35l39.43-39.43a20.29 20.29 0 0 1 34.63 14.34zm231.2 195.72-15.2-144.84a8 8 0 0 0 -15.95.42l-7.64 144.42h-297.21l-15.2-144.84a8 8 0 0 0 -15.92 0l-15.28 144.84h-32l21.48-214.4a16 16 0 0 1 12-13.93l143.62-35.91a8 8 0 0 0 6.1-7.76v-40a8 8 0 0 0 -8-8h-16v-16h40v108.69l-8.4 8.4c-12.92-16.09-38.84-17.67-53.54-2.46l-39.43 39.43a36 36 0 0 0 -10.63 25.66v104a36.33 36.33 0 0 0 36.28 36.28h39.44a36.33 36.33 0 0 0 36.28-36.28v-112.41l24-24 24 24v112.41a36.33 36.33 0 0 0 36.28 36.28h39.44a36.33 36.33 0 0 0 36.28-36.28v-104a36 36 0 0 0 -10.63-25.66l-39.43-39.43c-14.69-15.19-40.62-13.65-53.54 2.46l-8.4-8.4v-164.69a8 8 0 0 0 -8-8h-91.06l10.22-20.42a8 8 0 0 0 -3.58-10.74l-11.58-5.78v-11.06h116.69l13.65 13.66a8 8 0 0 0 5.66 2.34h16v68.69l-29.66 29.65a8 8 0 0 0 -2.34 5.66v56a8 8 0 0 0 5.7 7.66l144.67 43.4a16 16 0 0 1 11.32 13.68l21.44 207.26zm-415.2-452v-4a8 8 0 0 1 16 0v4a52.06 52.06 0 0 0 52 52h16.69l-2.35-2.34c-7.22-7.74 3.56-18.55 11.32-11.32l16 16a8 8 0 0 1 0 11.32l-16 16c-7.74 7.22-18.55-3.56-11.32-11.32l2.35-2.34h-16.69a68.07 68.07 0 0 1 -68-68zm-13.66 169.66c-7.23-7.75 3.57-18.54 11.32-11.32l2.34 2.35a68.1 68.1 0 0 1 68-68.69h36a8 8 0 0 1 0 16h-36a52.08 52.08 0 0 0 -52 52.69l2.34-2.35c7.74-7.22 18.55 3.56 11.32 11.32l-16 16a8 8 0 0 1 -11.32 0z"/></g></svg>